<?xml version="1.0" encoding="UTF-8" standalone="no"?>
<!DOCTYPE svg PUBLIC "-//W3C//DTD SVG 1.1//EN"
 "http://www.w3.org/Graphics/SVG/1.1/DTD/svg11.dtd">
<!-- Generated by graphviz version 2.40.1 (20161225.0304)
 -->
<!-- Title: G Pages: 1 -->
<svg width="1304pt" height="556pt"
 viewBox="0.00 0.00 1303.55 555.51" xmlns="http://www.w3.org/2000/svg" xmlns:xlink="http://www.w3.org/1999/xlink">
<g id="graph0" class="graph" transform="scale(1 1) rotate(0) translate(4 551.5074)">
<title>G</title>
<polygon fill="#ffffff" stroke="transparent" points="-4,4 -4,-551.5074 1299.5488,-551.5074 1299.5488,4 -4,4"/>
<g id="clust1" class="cluster">
<title>cluster_arguments</title>
<polygon fill="#3399ff" stroke="#000000" points="169.2698,-92.9117 169.2698,-181.8234 1001.2698,-181.8234 1001.2698,-92.9117 169.2698,-92.9117"/>
<text text-anchor="middle" x="585.2698" y="-166.6234" font-family="Times,serif" font-size="14.00" fill="#000000">Arguments</text>
</g>
<!-- genomePath -->
<g id="node1" class="node">
<title>genomePath</title>
<ellipse fill="none" stroke="#000000" cx="870.2698" cy="-126.3675" rx="122.8302" ry="25.4118"/>
<text text-anchor="middle" x="870.2698" y="-129.1675" font-family="Times,serif" font-size="14.00" fill="#000000">genomePath</text>
<text text-anchor="middle" x="870.2698" y="-115.1675" font-family="Times,serif" font-size="14.00" fill="#000000">(Innmind\Url\PathInterface)</text>
</g>
<!-- pathToStoreExpressedGenes -->
<g id="node2" class="node">
<title>pathToStoreExpressedGenes</title>
<ellipse fill="none" stroke="#000000" cx="302.2698" cy="-126.3675" rx="124.9678" ry="25.4118"/>
<text text-anchor="middle" x="302.2698" y="-129.1675" font-family="Times,serif" font-size="14.00" fill="#000000">pathToStoreExpressedGenes</text>
<text text-anchor="middle" x="302.2698" y="-115.1675" font-family="Times,serif" font-size="14.00" fill="#000000">(string)</text>
</g>
<!-- server -->
<g id="node3" class="node">
<title>server</title>
<ellipse fill="none" stroke="#000000" cx="587.2698" cy="-126.3675" rx="141.753" ry="25.4118"/>
<text text-anchor="middle" x="587.2698" y="-129.1675" font-family="Times,serif" font-size="14.00" fill="#000000">server</text>
<text text-anchor="middle" x="587.2698" y="-115.1675" font-family="Times,serif" font-size="14.00" fill="#000000">(Innmind\Server\Control\Server)</text>
</g>
<!-- defaultServer -->
<g id="node12" class="node">
<title>defaultServer</title>
<ellipse fill="none" stroke="#000000" cx="587.2698" cy="-25.4558" rx="197.9345" ry="25.4118"/>
<text text-anchor="middle" x="587.2698" y="-28.2558" font-family="Times,serif" font-size="14.00" fill="#000000">defaultServer</text>
<text text-anchor="middle" x="587.2698" y="-14.2558" font-family="Times,serif" font-size="14.00" fill="#000000">(Innmind\Server\Control\ServerFactory::build)</text>
</g>
<!-- server&#45;&gt;defaultServer -->
<g id="edge10" class="edge">
<title>server&#45;&gt;defaultServer</title>
<path fill="none" stroke="#000000" stroke-dasharray="1,5" d="M587.2698,-100.9033C587.2698,-88.8326 587.2698,-74.209 587.2698,-61.062"/>
<polygon fill="#000000" stroke="#000000" points="590.7699,-60.9119 587.2698,-50.912 583.7699,-60.912 590.7699,-60.9119"/>
<text text-anchor="middle" x="616.6233" y="-71.7117" font-family="Times,serif" font-size="14.00" fill="#000000">defaults to</text>
</g>
<!-- commands -->
<g id="node4" class="node">
<title>commands</title>
<polygon fill="#00ff00" stroke="#000000" points="826.9798,-525.7547 681.2698,-547.4726 535.5597,-525.7547 535.6957,-490.6145 826.8438,-490.6145 826.9798,-525.7547"/>
<text text-anchor="middle" x="681.2698" y="-518.8422" font-family="Times,serif" font-size="14.00" fill="#000000">commands</text>
<text text-anchor="middle" x="681.2698" y="-504.8422" font-family="Times,serif" font-size="14.00" fill="#000000">(Innmind\CLI\Commands)</text>
</g>
<!-- command_express -->
<g id="node5" class="node">
<title>command_express</title>
<ellipse fill="none" stroke="#000000" cx="335.2698" cy="-422.1212" rx="165.6581" ry="25.4118"/>
<text text-anchor="middle" x="335.2698" y="-424.9212" font-family="Times,serif" font-size="14.00" fill="#000000">command.express</text>
<text text-anchor="middle" x="335.2698" y="-410.9212" font-family="Times,serif" font-size="14.00" fill="#000000">(Innmind\Genome\Command\Express)</text>
</g>
<!-- commands&#45;&gt;command_express -->
<g id="edge1" class="edge">
<title>commands&#45;&gt;command_express</title>
<path fill="none" stroke="#000000" d="M587.1808,-490.5019C537.2778,-476.9559 476.226,-460.3835 426.7241,-446.9463"/>
<polygon fill="#000000" stroke="#000000" points="427.5521,-443.5445 416.9845,-444.3025 425.7183,-450.3 427.5521,-443.5445"/>
</g>
<!-- command_mutate -->
<g id="node6" class="node">
<title>command_mutate</title>
<ellipse fill="none" stroke="#000000" cx="681.2698" cy="-422.1212" rx="162.5551" ry="25.4118"/>
<text text-anchor="middle" x="681.2698" y="-424.9212" font-family="Times,serif" font-size="14.00" fill="#000000">command.mutate</text>
<text text-anchor="middle" x="681.2698" y="-410.9212" font-family="Times,serif" font-size="14.00" fill="#000000">(Innmind\Genome\Command\Mutate)</text>
</g>
<!-- commands&#45;&gt;command_mutate -->
<g id="edge2" class="edge">
<title>commands&#45;&gt;command_mutate</title>
<path fill="none" stroke="#000000" d="M681.2698,-490.3779C681.2698,-480.3351 681.2698,-468.6437 681.2698,-457.8042"/>
<polygon fill="#000000" stroke="#000000" points="684.7699,-457.7545 681.2698,-447.7545 677.7699,-457.7545 684.7699,-457.7545"/>
</g>
<!-- command_genes -->
<g id="node7" class="node">
<title>command_genes</title>
<ellipse fill="none" stroke="#000000" cx="1021.2698" cy="-422.1212" rx="159.4525" ry="25.4118"/>
<text text-anchor="middle" x="1021.2698" y="-424.9212" font-family="Times,serif" font-size="14.00" fill="#000000">command.genes</text>
<text text-anchor="middle" x="1021.2698" y="-410.9212" font-family="Times,serif" font-size="14.00" fill="#000000">(Innmind\Genome\Command\Genes)</text>
</g>
<!-- commands&#45;&gt;command_genes -->
<g id="edge3" class="edge">
<title>commands&#45;&gt;command_genes</title>
<path fill="none" stroke="#000000" d="M773.7272,-490.5019C822.7546,-476.9587 882.7329,-460.3904 931.371,-446.9547"/>
<polygon fill="#000000" stroke="#000000" points="932.5478,-450.2608 941.2548,-444.2244 930.6839,-443.5135 932.5478,-450.2608"/>
</g>
<!-- express -->
<g id="node8" class="node">
<title>express</title>
<polygon fill="#00ff00" stroke="#000000" points="737.9558,-337.9127 587.2698,-359.6306 436.5837,-337.9127 436.7244,-302.7725 737.8152,-302.7725 737.9558,-337.9127"/>
<text text-anchor="middle" x="587.2698" y="-331.0002" font-family="Times,serif" font-size="14.00" fill="#000000">express</text>
<text text-anchor="middle" x="587.2698" y="-317.0002" font-family="Times,serif" font-size="14.00" fill="#000000">(Innmind\Genome\Express)</text>
</g>
<!-- command_express&#45;&gt;express -->
<g id="edge4" class="edge">
<title>command_express&#45;&gt;express</title>
<path fill="none" stroke="#000000" d="M398.5347,-398.5422C434.4027,-385.1741 479.3767,-368.4122 516.4246,-354.6044"/>
<polygon fill="#000000" stroke="#000000" points="518.0065,-357.75 526.1546,-350.978 515.5619,-351.1908 518.0065,-357.75"/>
</g>
<!-- filesystem -->
<g id="node9" class="node">
<title>filesystem</title>
<ellipse fill="none" stroke="#000000" cx="209.2698" cy="-328.2002" rx="209.0398" ry="25.4118"/>
<text text-anchor="middle" x="209.2698" y="-331.0002" font-family="Times,serif" font-size="14.00" fill="#000000">filesystem</text>
<text text-anchor="middle" x="209.2698" y="-317.0002" font-family="Times,serif" font-size="14.00" fill="#000000">(Innmind\Filesystem\Adapter\FilesystemAdapter)</text>
</g>
<!-- command_express&#45;&gt;filesystem -->
<g id="edge5" class="edge">
<title>command_express&#45;&gt;filesystem</title>
<path fill="none" stroke="#000000" d="M301.5041,-396.9521C286.1094,-385.4768 267.7222,-371.7709 251.4303,-359.6269"/>
<polygon fill="#000000" stroke="#000000" points="253.2381,-356.609 243.1287,-353.4388 249.0546,-362.2214 253.2381,-356.609"/>
</g>
<!-- command_mutate&#45;&gt;filesystem -->
<g id="edge13" class="edge">
<title>command_mutate&#45;&gt;filesystem</title>
<path fill="none" stroke="#000000" d="M580.5929,-402.088C506.7253,-387.3895 406.1432,-367.3751 328.2925,-351.884"/>
<polygon fill="#000000" stroke="#000000" points="328.9229,-348.4409 318.4321,-349.9219 327.5568,-355.3063 328.9229,-348.4409"/>
</g>
<!-- mutate -->
<g id="node13" class="node">
<title>mutate</title>
<ellipse fill="none" stroke="#000000" cx="874.2698" cy="-328.2002" rx="118.5617" ry="25.4118"/>
<text text-anchor="middle" x="874.2698" y="-331.0002" font-family="Times,serif" font-size="14.00" fill="#000000">mutate</text>
<text text-anchor="middle" x="874.2698" y="-317.0002" font-family="Times,serif" font-size="14.00" fill="#000000">(Innmind\Genome\Mutate)</text>
</g>
<!-- command_mutate&#45;&gt;mutate -->
<g id="edge12" class="edge">
<title>command_mutate&#45;&gt;mutate</title>
<path fill="none" stroke="#000000" d="M731.2231,-397.8121C757.5138,-385.018 789.8658,-369.2744 817.1487,-355.9975"/>
<polygon fill="#000000" stroke="#000000" points="818.7305,-359.1202 826.1908,-351.5973 815.6674,-352.8259 818.7305,-359.1202"/>
</g>
<!-- genome -->
<g id="node10" class="node">
<title>genome</title>
<ellipse fill="none" stroke="#000000" cx="874.2698" cy="-234.2792" rx="146.6428" ry="25.4118"/>
<text text-anchor="middle" x="874.2698" y="-237.0792" font-family="Times,serif" font-size="14.00" fill="#000000">genome</text>
<text text-anchor="middle" x="874.2698" y="-223.0792" font-family="Times,serif" font-size="14.00" fill="#000000">(Innmind\Genome\Genome::load)</text>
</g>
<!-- command_genes&#45;&gt;genome -->
<g id="edge16" class="edge">
<title>command_genes&#45;&gt;genome</title>
<path fill="none" stroke="#000000" d="M1023.9549,-396.4538C1025.4329,-369.1085 1023.6479,-325.834 1002.2698,-296.7351 991.091,-281.519 975.1929,-269.8235 958.3853,-260.9022"/>
<polygon fill="#000000" stroke="#000000" points="959.491,-257.5433 948.9783,-256.2265 956.3753,-263.8117 959.491,-257.5433"/>
</g>
<!-- express&#45;&gt;server -->
<g id="edge7" class="edge">
<title>express&#45;&gt;server</title>
<path fill="none" stroke="#000000" d="M587.2698,-302.638C587.2698,-267.0967 587.2698,-202.5841 587.2698,-162.2392"/>
<polygon fill="#000000" stroke="#000000" points="590.7699,-162.0402 587.2698,-152.0402 583.7699,-162.0402 590.7699,-162.0402"/>
</g>
<!-- express&#45;&gt;genome -->
<g id="edge6" class="edge">
<title>express&#45;&gt;genome</title>
<path fill="none" stroke="#000000" d="M665.3147,-302.66C705.8834,-289.3838 755.335,-273.2007 795.9446,-259.9112"/>
<polygon fill="#000000" stroke="#000000" points="797.1164,-263.2105 805.5318,-256.7738 794.9392,-256.5576 797.1164,-263.2105"/>
</g>
<!-- filesystem&#45;&gt;pathToStoreExpressedGenes -->
<g id="edge11" class="edge">
<title>filesystem&#45;&gt;pathToStoreExpressedGenes</title>
<path fill="none" stroke="#000000" d="M221.0483,-302.638C237.6096,-266.696 267.8228,-201.1258 286.3654,-160.884"/>
<polygon fill="#000000" stroke="#000000" points="289.5807,-162.2692 290.5869,-151.7222 283.2232,-159.3397 289.5807,-162.2692"/>
</g>
<!-- genome&#45;&gt;genomePath -->
<g id="edge9" class="edge">
<title>genome&#45;&gt;genomePath</title>
<path fill="none" stroke="#000000" d="M873.3218,-208.7057C872.8075,-194.8303 872.1634,-177.4542 871.5997,-162.2451"/>
<polygon fill="#000000" stroke="#000000" points="875.0929,-161.995 871.2248,-152.1315 868.0977,-162.2543 875.0929,-161.995"/>
</g>
<!-- loader -->
<g id="node11" class="node">
<title>loader</title>
<ellipse fill="none" stroke="#000000" cx="1153.2698" cy="-126.3675" rx="142.0583" ry="25.4118"/>
<text text-anchor="middle" x="1153.2698" y="-129.1675" font-family="Times,serif" font-size="14.00" fill="#000000">loader</text>
<text text-anchor="middle" x="1153.2698" y="-115.1675" font-family="Times,serif" font-size="14.00" fill="#000000">(Innmind\Genome\Loader\Yaml)</text>
</g>
<!-- genome&#45;&gt;loader -->
<g id="edge8" class="edge">
<title>genome&#45;&gt;loader</title>
<path fill="none" stroke="#000000" d="M934.4651,-210.9968C978.2845,-194.0484 1037.7368,-171.0534 1083.6101,-153.3105"/>
<polygon fill="#000000" stroke="#000000" points="1085.1182,-156.48 1093.1823,-149.6082 1082.593,-149.9513 1085.1182,-156.48"/>
</g>
<!-- mutate&#45;&gt;server -->
<g id="edge15" class="edge">
<title>mutate&#45;&gt;server</title>
<path fill="none" stroke="#000000" d="M810.6702,-306.6495C781.1871,-295.1036 746.5094,-279.2195 718.2698,-259.7351 677.2473,-231.4309 638.3028,-189.0946 613.7042,-159.7451"/>
<polygon fill="#000000" stroke="#000000" points="616.2289,-157.3062 607.1567,-151.8339 610.8362,-161.7693 616.2289,-157.3062"/>
</g>
<!-- mutate&#45;&gt;genome -->
<g id="edge14" class="edge">
<title>mutate&#45;&gt;genome</title>
<path fill="none" stroke="#000000" d="M874.2698,-302.5359C874.2698,-292.4931 874.2698,-280.8017 874.2698,-269.9622"/>
<polygon fill="#000000" stroke="#000000" points="877.7699,-269.9125 874.2698,-259.9125 870.7699,-269.9126 877.7699,-269.9125"/>
</g>
</g>
</svg>
